<?xml version="1.0" encoding="utf-8"?>
<!-- Generator: Adobe Illustrator 22.0.0, SVG Export Plug-In . SVG Version: 6.00 Build 0)  -->
<svg version="1.1" id="Layer_1" xmlns="http://www.w3.org/2000/svg" xmlns:xlink="http://www.w3.org/1999/xlink" x="0px" y="0px"
	 viewBox="0 0 244 224" style="enable-background:new 0 0 244 224;" xml:space="preserve">
<style type="text/css">
	.st0{fill:#FFFFFF;}
</style>
<g>
	<path class="st0" d="M12.1,215c0-32.7,0-65.3,0-98c7.2,0,14.5,0,22.3,0c0-6.6,0-12.8,0-18.8c27.6,0,54.7,0,82.2,0
		c0,6.5,0,12.6,0,18.8c19.9,0,39.3,0,58.8,0c0-13.1,0-25.8,0-37.3c-3.1-1.7-6.4-2.3-7.4-4.2c-5.6-10.2-10.7-20.7-15.9-31.1
		c-0.5-1-0.9-2.9-0.3-3.5c4-5.1,8.2-10.1,12.6-14.9c0.9-0.9,3.1-0.9,4.6-0.9c11.5-0.1,23,0,34.5-0.1c1.7,0,3.5-0.2,5.1-0.2
		c0-4.3,0-8,0-12.2c-2.6,0-4.7,0.2-6.8-0.1c-0.9-0.1-1.6-1.3-2.5-2c0.7-0.8,1.4-2.3,2.1-2.3c6.2-0.2,12.3-0.2,18.5,0
		c0.8,0,1.5,1.4,2.3,2.2c-0.9,0.8-1.7,2-2.7,2.2c-2.1,0.3-4.2,0.1-6.6,0.1c0,4.3,0,8.1,0,12.1c1.5,0.1,2.9,0.4,4.1,0.2
		c4.5-0.7,7.4,1.2,10,4.7c3.1,4.3,6.8,8.2,10.3,12.2c0,0.3,0,0.7,0,1c-5,9.5-10.2,18.9-15,28.6c-2.1,4.2-3.8,8.2-9.7,6.6
		c0,13.3,0,26,0,39.3c6.3,0,12.4,0,18.3,0c0,32.8,0,65,0,97.1c-52,0-103.6,0-155.8,0c0-16.3,0-32.3,0-48.3c-11.9,0-23.2,0-35.1,0
		c0,16.3,0,32.3,0,48.7C30,215,21,215,12.1,215z M142.3,145.5c15.9,0,31.3,0,46.7,0c0-4.8,0-9.2,0-13.8c-15.7,0-31.1,0-46.7,0
		C142.3,136.4,142.3,140.8,142.3,145.5z M77.1,131.8c-16,0-31.3,0-46.7,0c0,4.8,0,9.2,0,13.8c15.7,0,31,0,46.7,0
		C77.1,140.9,77.1,136.5,77.1,131.8z M133.1,131.8c-15.7,0-31.2,0-46.6,0c0,4.9,0,9.3,0,13.8c15.7,0,31.1,0,46.6,0
		C133.1,140.8,133.1,136.4,133.1,131.8z M187.2,68.7c4.5,0,8.6,0,12.7,0c0-6,0-11.7,0-17.2c-4.5,0-8.5,0-12.7,0
		C187.2,57.3,187.2,62.8,187.2,68.7z M204.4,51.3c0,6.2,0,11.8,0,18.2c3.2-0.6,7.3-0.2,8.5-1.8c3.4-4.9,5.6-10.7,8.4-16.4
		C215.2,51.3,209.9,51.3,204.4,51.3z M166.3,51.3c2.1,4.2,4.3,7.9,5.7,11.9c2,5.7,5.6,7,11.1,5.3c0-5.7,0-11.3,0-17.2
		C177.5,51.3,172.3,51.3,166.3,51.3z"/>
</g>
</svg>
